<svg width="1280" height="640" viewBox="0 0 1280 640" fill="none" xmlns="http://www.w3.org/2000/svg">
  <defs>
    <linearGradient id="paper" x1="72" y1="64" x2="1198" y2="604" gradientUnits="userSpaceOnUse">
      <stop stop-color="#F7F1E9"/>
      <stop offset="0.52" stop-color="#EEE3D6"/>
      <stop offset="1" stop-color="#E4D3C3"/>
    </linearGradient>
    <linearGradient id="sheet" x1="160" y1="110" x2="1124" y2="536" gradientUnits="userSpaceOnUse">
      <stop stop-color="#FFFDF9" stop-opacity="0.88"/>
      <stop offset="1" stop-color="#FFF7EF" stop-opacity="0.62"/>
    </linearGradient>
    <linearGradient id="ink" x1="184" y1="194" x2="950" y2="442" gradientUnits="userSpaceOnUse">
      <stop stop-color="#352820"/>
      <stop offset="1" stop-color="#6A5447"/>
    </linearGradient>
    <radialGradient id="glowA" cx="0" cy="0" r="1" gradientUnits="userSpaceOnUse" gradientTransform="translate(254 114) rotate(32) scale(226 152)">
      <stop stop-color="#F1C8A7"/>
      <stop offset="1" stop-color="#F1C8A7" stop-opacity="0"/>
    </radialGradient>
    <radialGradient id="glowB" cx="0" cy="0" r="1" gradientUnits="userSpaceOnUse" gradientTransform="translate(1028 176) rotate(18) scale(242 166)">
      <stop stop-color="#CBA8AE"/>
      <stop offset="1" stop-color="#CBA8AE" stop-opacity="0"/>
    </radialGradient>
    <filter id="shadow" x="110" y="90" width="1084" height="470" filterUnits="userSpaceOnUse">
      <feOffset dy="18"/>
      <feGaussianBlur stdDeviation="26"/>
      <feColorMatrix type="matrix" values="0 0 0 0 0.26 0 0 0 0 0.2 0 0 0 0 0.16 0 0 0 0.12 0"/>
      <feBlend in2="SourceGraphic" result="shape"/>
    </filter>
  </defs>

  <rect width="1280" height="640" rx="32" fill="url(#paper)"/>
  <ellipse cx="254" cy="114" rx="226" ry="152" fill="url(#glowA)" opacity="0.55"/>
  <ellipse cx="1028" cy="176" rx="242" ry="166" fill="url(#glowB)" opacity="0.58"/>

  <g filter="url(#shadow)">
    <rect x="146" y="108" width="988" height="398" rx="26" fill="url(#sheet)"/>
    <rect x="146.75" y="108.75" width="986.5" height="396.5" rx="25.25" stroke="#F0E1D2" stroke-opacity="0.8" stroke-width="1.5"/>
  </g>

  <path d="M848 120C910 168 952 244 954 324C956 406 928 476 879 528" stroke="#D2BEAF" stroke-width="1.8" stroke-opacity="0.75"/>
  <path d="M228 468C300 438 354 396 418 325C469 268 530 212 609 180C707 141 804 149 905 206" stroke="#BE8E74" stroke-width="4.2" stroke-linecap="round" stroke-opacity="0.66"/>
  <path d="M247 507C373 490 466 452 535 406C596 366 652 313 721 284C784 258 849 253 928 282" stroke="#B89B8B" stroke-width="2" stroke-linecap="round" stroke-opacity="0.58"/>

  <g opacity="0.94">
    <text x="194" y="173" fill="#8A6956" font-family="Arial, Helvetica, sans-serif" font-size="17" letter-spacing="3.2">HUMAN 3.0</text>
    <line x1="334" y1="164" x2="426" y2="164" stroke="#D9C3B3" stroke-width="1.5"/>
  </g>

  <text x="191" y="258" fill="url(#ink)" font-family="Georgia, 'Times New Roman', serif" font-size="72" font-weight="700">Development Assessor</text>
  <text x="194" y="311" fill="#776256" font-family="Georgia, 'Times New Roman', serif" font-size="29" font-style="italic">A reflective framework for self-discovery,</text>
  <text x="194" y="347" fill="#776256" font-family="Georgia, 'Times New Roman', serif" font-size="29" font-style="italic">clarity, and long-range human growth.</text>

  <text x="194" y="418" fill="#8A7062" font-family="Arial, Helvetica, sans-serif" font-size="19" letter-spacing="1">Mind  •  Body  •  Spirit  •  Vocation</text>
  <text x="194" y="451" fill="#9C7E6D" font-family="Arial, Helvetica, sans-serif" font-size="18">Adaptive interviews, root-cause insight, and longitudinal memory.</text>

  <g opacity="0.46">
    <path d="M906 191C868 197 835 222 816 257C796 292 793 337 804 381C817 430 847 473 890 501" stroke="#9F8072" stroke-width="1.9"/>
    <path d="M871 214C853 220 839 233 828 251C813 276 806 313 809 350C813 398 837 444 873 473" stroke="#9F8072" stroke-width="1.4"/>
    <path d="M861 266C875 268 887 273 895 284C904 298 906 315 903 330C899 347 888 360 874 367" stroke="#9F8072" stroke-width="1.4" stroke-linecap="round"/>
    <path d="M855 391C875 402 899 407 925 404" stroke="#9F8072" stroke-width="1.4" stroke-linecap="round"/>
  </g>
</svg>
