<svg width="1280" height="640" viewBox="0 0 1280 640" fill="none" xmlns="http://www.w3.org/2000/svg">
  <defs>
    <linearGradient id="bg" x1="86" y1="62" x2="1178" y2="602" gradientUnits="userSpaceOnUse">
      <stop stop-color="#F8F1E8"/>
      <stop offset="0.48" stop-color="#EFE5DA"/>
      <stop offset="1" stop-color="#E7D8C9"/>
    </linearGradient>
    <linearGradient id="panel" x1="158" y1="114" x2="1150" y2="530" gradientUnits="userSpaceOnUse">
      <stop stop-color="white" stop-opacity="0.82"/>
      <stop offset="1" stop-color="white" stop-opacity="0.56"/>
    </linearGradient>
    <linearGradient id="ink" x1="186" y1="189" x2="1034" y2="471" gradientUnits="userSpaceOnUse">
      <stop stop-color="#43352C"/>
      <stop offset="1" stop-color="#6D5648"/>
    </linearGradient>
    <linearGradient id="accent" x1="258" y1="136" x2="972" y2="484" gradientUnits="userSpaceOnUse">
      <stop stop-color="#D79A6B"/>
      <stop offset="0.55" stop-color="#B78468"/>
      <stop offset="1" stop-color="#8C6B7B"/>
    </linearGradient>
    <filter id="softBlur" x="0" y="0" width="1280" height="640" filterUnits="userSpaceOnUse">
      <feGaussianBlur stdDeviation="58"/>
    </filter>
    <filter id="shadow" x="110" y="96" width="1080" height="456" filterUnits="userSpaceOnUse">
      <feOffset dy="16"/>
      <feGaussianBlur stdDeviation="24"/>
      <feColorMatrix type="matrix" values="0 0 0 0 0.31 0 0 0 0 0.23 0 0 0 0 0.18 0 0 0 0.12 0"/>
      <feBlend in2="SourceGraphic" result="shape"/>
    </filter>
  </defs>

  <rect width="1280" height="640" rx="32" fill="url(#bg)"/>

  <g filter="url(#softBlur)" opacity="0.34">
    <circle cx="204" cy="108" r="132" fill="#F5C7A1"/>
    <circle cx="1074" cy="152" r="164" fill="#C9A3A6"/>
    <circle cx="984" cy="552" r="140" fill="#D4B49E"/>
  </g>

  <g filter="url(#shadow)">
    <rect x="142" y="112" width="996" height="392" rx="28" fill="url(#panel)"/>
    <rect x="142.75" y="112.75" width="994.5" height="390.5" rx="27.25" stroke="#F3E5D7" stroke-opacity="0.74" stroke-width="1.5"/>
  </g>

  <path d="M857 121C930 170 981 258 978 352C975 430 942 486 891 533" stroke="#D8C1AF" stroke-width="2" stroke-opacity="0.78"/>
  <path d="M234 471C317 427 377 381 439 315C481 271 535 215 613 181C716 135 820 146 922 210" stroke="url(#accent)" stroke-width="4.5" stroke-linecap="round" stroke-opacity="0.72"/>
  <path d="M260 503C383 492 477 458 547 411C610 369 666 307 735 278C797 252 862 248 947 281" stroke="#BDA18E" stroke-width="2.2" stroke-linecap="round" stroke-opacity="0.6"/>

  <g opacity="0.94">
    <rect x="196" y="156" width="148" height="34" rx="17" fill="#F5E7DA"/>
    <text x="222" y="179" fill="#7D6152" font-family="Georgia, 'Times New Roman', serif" font-size="18" letter-spacing="1.8">HUMAN 3.0</text>
  </g>

  <text x="195" y="254" fill="url(#ink)" font-family="Georgia, 'Times New Roman', serif" font-size="67" font-weight="700">Development Assessor</text>
  <text x="196" y="307" fill="#7D6658" font-family="Arial, Helvetica, sans-serif" font-size="26">A warm, reflective framework for mapping growth across</text>
  <text x="196" y="343" fill="#7D6658" font-family="Arial, Helvetica, sans-serif" font-size="26">Mind, Body, Spirit, and Vocation.</text>

  <g opacity="0.97">
    <rect x="196" y="390" width="180" height="44" rx="22" fill="#F6EADF" stroke="#E7D6C6"/>
    <text x="228" y="417" fill="#6E5649" font-family="Arial, Helvetica, sans-serif" font-size="19">Adaptive Interview</text>

    <rect x="392" y="390" width="168" height="44" rx="22" fill="#F6EADF" stroke="#E7D6C6"/>
    <text x="427" y="417" fill="#6E5649" font-family="Arial, Helvetica, sans-serif" font-size="19">Root-Cause Insight</text>

    <rect x="576" y="390" width="190" height="44" rx="22" fill="#F6EADF" stroke="#E7D6C6"/>
    <text x="605" y="417" fill="#6E5649" font-family="Arial, Helvetica, sans-serif" font-size="19">Longitudinal Memory</text>
  </g>

  <g opacity="0.92">
    <text x="197" y="465" fill="#A47C67" font-family="Arial, Helvetica, sans-serif" font-size="18" letter-spacing="2.4">MIND</text>
    <text x="286" y="465" fill="#A47C67" font-family="Arial, Helvetica, sans-serif" font-size="18" letter-spacing="2.4">BODY</text>
    <text x="390" y="465" fill="#A47C67" font-family="Arial, Helvetica, sans-serif" font-size="18" letter-spacing="2.4">SPIRIT</text>
    <text x="507" y="465" fill="#A47C67" font-family="Arial, Helvetica, sans-serif" font-size="18" letter-spacing="2.4">VOCATION</text>
  </g>

  <g opacity="0.5">
    <path d="M916 195C873 198 836 222 814 259C791 299 786 351 801 398C817 447 848 486 893 510" stroke="#A98878" stroke-width="2"/>
    <path d="M873 218C852 224 836 238 825 258C807 290 802 337 811 377C821 420 845 454 878 477" stroke="#A98878" stroke-width="1.5"/>
    <path d="M863 267C875 268 887 274 894 287C902 302 903 319 899 334C894 352 882 365 867 372" stroke="#A98878" stroke-width="1.5" stroke-linecap="round"/>
    <path d="M852 391C869 403 892 410 916 408" stroke="#A98878" stroke-width="1.5" stroke-linecap="round"/>
  </g>
</svg>
